<?xml version="1.0" encoding="utf-8"?>
<!-- Generator: Adobe Illustrator 27.5.0, SVG Export Plug-In . SVG Version: 6.00 Build 0)  -->
<svg version="1.1" id="Layer_1" xmlns="http://www.w3.org/2000/svg" xmlns:xlink="http://www.w3.org/1999/xlink" x="0px" y="0px"
	 viewBox="0 0 1250 278" style=" 0 0 0 0;"  xml:space="preserve">
<g>
	<path d="M1226.25,217.85c0-5.12,0.01-8.97,0-12.82c-0.08-49.04-0.07-98.07-0.28-147.11c-0.06-13.73,0.49-27.49-1.56-41.19
		c-0.88-5.9,1.09-7.25,7.21-7.4c4.94-0.12,6.47,1.53,6.26,6.88c-3.26,81.43-2.34,162.91-2.81,244.38c-0.02,3.17,0.19,6.4-0.32,9.5
		c-0.8,4.86-4.59,6.36-8.38,3.27c-2.13-1.74-3.71-4.21-5.35-6.49c-45.7-63.57-91.36-127.16-137.05-190.75
		c-4.08-5.68-8.25-11.31-12.94-17.73c-1.78,3.31-1.25,6.07-1.24,8.64c0.1,63.15,0.24,126.29,0.42,189.44
		c0.01,4.23-0.2,8.57,0.67,12.65c1.13,5.33-1.53,6.18-5.63,6.01c-3.69-0.15-7.42,0.98-7.26-5.68c1.75-73.36,0.51-146.74,1.1-220.11
		c0.05-6.37-1.7-11.61-5.69-16.52c-4.44-5.47-8.34-11.37-12.57-17.01c-2.44-3.25-3.12-6.12,2.11-6.28
		c9.51-0.29,19.04-0.13,28.57-0.05c4.5,0.04,6.66,3.45,8.93,6.64c26.38,37.06,52.76,74.12,79.16,111.17
		c19.64,27.57,39.27,55.16,59.02,82.66C1220.38,212.42,1221.66,215.47,1226.25,217.85z"/>
	<path d="M993.31,218.6c0-28.45,0.04-54.88-0.01-81.31c-0.07-33.51-0.21-67.03-0.33-100.54c-0.03-7.05-0.31-14.08-1.48-21.07
		c-0.93-5.59,2.92-6.34,7.24-6.32c3.91,0.02,6.57,0.47,6.35,5.81c-3.41,83.19-2.4,166.44-2.9,249.67c-0.01,1.76,0.07,3.57-0.27,5.27
		c-0.97,4.83-4.66,6.39-8.41,3.24c-2.37-2-4.11-4.79-5.96-7.36c-48.8-67.86-97.57-135.74-146.35-203.6
		c-0.79-1.1-1.75-2.09-3.16-3.77c-1.67,3.08-1.13,5.84-1.13,8.41c0.1,63.15,0.25,126.3,0.41,189.45c0.01,3.53,0.08,7.06,0.3,10.58
		c0.46,7.66-0.38,8.52-7.39,8.14c-3.89-0.21-5.26-1.37-5.11-5.76c1.59-46.2,0.64-92.41,0.88-138.62
		c0.13-26.11-0.12-52.22,0.24-78.32c0.11-8.16-1.48-15.14-7-21.4c-4.18-4.74-7.51-10.22-11.33-15.29c-2.46-3.27-3.11-6.11,2.1-6.28
		c9.51-0.3,19.04-0.13,28.57-0.06c4.5,0.03,6.67,3.43,8.95,6.61c25.99,36.47,51.99,72.95,78,109.41
		c21.3,29.86,42.62,59.71,63.95,89.54C990.05,215.83,990.92,216.4,993.31,218.6z"/>
	<path d="M696.23,150.83c9.64-17.88,18.62-34.22,27.31-50.7c15.12-28.67,30.07-57.43,45.08-86.15c0.32-0.62,0.48-1.34,0.83-1.94
		c0.99-1.72,2.47-2.59,4.33-1.59c1.55,0.83,1.24,2.42,0.67,3.71c-0.71,1.6-1.71,3.07-2.55,4.62
		c-20.87,38.38-41.02,77.18-62.93,114.96c-9.14,15.76-12.32,31.47-11.58,49.17c1.2,28.85-1.12,57.79,1.37,86.63
		c0.31,3.62-0.96,5.46-4.46,5.5c-8.46,0.11-16.92,0.12-25.37,0.05c-4.99-0.04-4-3.66-3.96-6.81c0.22-19.39,0.41-38.77,0.53-58.16
		c0.08-12.34-0.45-24.7,0.16-37.01c0.48-9.65-2.35-17.84-7.23-25.9c-22.06-36.49-43.89-73.11-65.84-109.67
		c-4.35-7.25-8.91-14.37-13.26-21.62c-2.78-4.64-2.06-6.26,3.4-6.46c8.45-0.31,16.92,0.01,25.38-0.13c4.06-0.07,6.07,1.87,8.08,5.33
		c24.91,42.98,50.03,85.85,75.12,128.73C692.51,145.48,693.96,147.44,696.23,150.83z"/>
	<path d="M359.03,275.19c-16.06,0.01-15.82-0.06-20.52-15.77c-7.98-26.66-16.45-53.17-24.38-79.84c-1.77-5.96-4.49-8.7-11.05-8.62
		c-23.62,0.31-47.24,0.28-70.86,0.01c-5.86-0.07-9.09,1.71-10.71,7.52c-8.41,30.19-18.61,59.87-25.76,90.42
		c-0.16,0.68-0.21,1.39-0.32,2.09c-0.45,3.01-2.23,4.49-5.14,3.64c-3.11-0.9-1.77-3.21-1.05-5.12
		c6.69-17.83,12.08-36.08,17.61-54.28c19.34-63.69,38.63-127.39,57.7-191.16c1.14-3.8,2.49-6.31,6.23-7.51
		c5.61-1.79,9.55-5.62,13.02-10.29c3.68-4.95,5.68-4.81,7.72,0.84c4.2,11.59,7.96,23.35,11.69,35.1
		c13.65,42.98,27.21,85.99,40.83,128.98c10.33,32.57,20.6,65.16,31.17,97.66c1.66,5.09,0.06,6.39-4.54,6.33
		C366.78,275.15,362.9,275.19,359.03,275.19z M267.54,30.3c-1.8,4.02-2.69,5.55-3.2,7.2c-12.5,41.06-24.99,82.13-37.38,123.23
		c-2.01,6.66-1.33,7.49,6.6,7.54c22.19,0.14,44.38,0.13,66.57,0.02c9.68-0.05,10.18-0.89,7.21-10.61
		c-5.98-19.52-11.98-39.03-18.07-58.52C282.35,77.03,275.32,54.93,267.54,30.3z"/>
	<path d="M12.62,142.53c-0.33-42.63,1.55-85.28-0.5-127.89c-0.19-3.85,1.44-5.17,4.77-5.2C25,9.37,33.1,9.39,41.21,9.41
		c4.18,0.01,4.93,2.14,4.83,6.15c-1.91,75.76-0.63,151.53-0.87,227.29c-0.06,17.78,6.31,24.81,23.89,24.85
		c28.51,0.06,57.07,1.7,85.52-1.69c1.4-0.17,2.81-0.21,4.22-0.23c2.21-0.02,4.39,0.3,4.64,3.05c0.24,2.64-0.59,5.12-3.4,5.8
		c-2.35,0.57-4.88,0.54-7.33,0.54c-43.7,0.03-87.4,0.04-131.1,0.01c-11.41-0.01-9.22-1.05-9.14-10.03
		C12.83,224.29,12.62,183.41,12.62,142.53z"/>
	<path d="M415.34,139.77c-0.72-39.89,0.96-82.19-0.93-124.45c-0.19-4.28,1.13-5.91,5.06-5.92c8.1-0.02,16.21-0.02,24.31,0.06
		c3.53,0.03,4.65,1.82,4.55,5.43c-2.05,72.58-0.54,145.18-1,217.77c-0.03,4.58-0.07,9.17,0.09,13.74
		c0.46,13.2,6.67,19.83,20.04,21.16c4.55,0.45,9.16,0.48,13.73,0.36c26.04-0.68,52.15,1.4,78.12-2.03c2.72-0.36,6.17-0.82,6.38,3.32
		c0.2,3.73-2,5.84-5.87,5.9c-2.11,0.03-4.23,0.08-6.34,0.08c-42.64,0-85.29,0-127.93,0c-1.76,0-3.53-0.07-5.29-0.03
		c-4.25,0.1-6.02-1.12-5.83-6.15C415.99,226.75,414.89,184.45,415.34,139.77z"/>
</g>
</svg>
